/vscmnt/brussel_pixiu_data/_data_brussel/112/vsc11236/PredSimResults/SUBJ10_Dhondt2024_3seg/weighted-LRposFixed/worker_04.mot
version=1
nRows=4
nColumns=124
inDegrees=yes
endheader
                time	         pelvis_tilt	         pelvis_list	     pelvis_rotation	           pelvis_tx	           pelvis_ty	           pelvis_tz	       hip_flexion_r	     hip_adduction_r	      hip_rotation_r	        knee_angle_r	       ankle_angle_r	    subtalar_angle_r	         mtp_angle_r	       hip_flexion_l	     hip_adduction_l	      hip_rotation_l	        knee_angle_l	       ankle_angle_l	    subtalar_angle_l	         mtp_angle_l	    lumbar_extension	      lumbar_bending	     lumbar_rotation	          arm_flex_r	           arm_add_r	           arm_rot_r	        elbow_flex_r	          arm_flex_l	           arm_add_l	           arm_rot_l	        elbow_flex_l	glut_med1_r/activation	glut_med2_r/activation	glut_med3_r/activation	glut_min1_r/activation	glut_min2_r/activation	glut_min3_r/activation	semimem_r/activation	semiten_r/activation	bifemlh_r/activation	bifemsh_r/activation	    sar_r/activation	add_long_r/activation	add_brev_r/activation	add_mag1_r/activation	add_mag2_r/activation	add_mag3_r/activation	    tfl_r/activation	   pect_r/activation	   grac_r/activation	glut_max1_r/activation	glut_max2_r/activation	glut_max3_r/activation	iliacus_r/activation	  psoas_r/activation	quad_fem_r/activation	    gem_r/activation	   peri_r/activation	rect_fem_r/activation	vas_med_r/activation	vas_int_r/activation	vas_lat_r/activation	med_gas_r/activation	lat_gas_r/activation	 soleus_r/activation	tib_post_r/activation	flex_dig_r/activation	flex_hal_r/activation	tib_ant_r/activation	per_brev_r/activation	per_long_r/activation	per_tert_r/activation	ext_dig_r/activation	ext_hal_r/activation	glut_med1_l/activation	glut_med2_l/activation	glut_med3_l/activation	glut_min1_l/activation	glut_min2_l/activation	glut_min3_l/activation	semimem_l/activation	semiten_l/activation	bifemlh_l/activation	bifemsh_l/activation	    sar_l/activation	add_long_l/activation	add_brev_l/activation	add_mag1_l/activation	add_mag2_l/activation	add_mag3_l/activation	    tfl_l/activation	   pect_l/activation	   grac_l/activation	glut_max1_l/activation	glut_max2_l/activation	glut_max3_l/activation	iliacus_l/activation	  psoas_l/activation	quad_fem_l/activation	    gem_l/activation	   peri_l/activation	rect_fem_l/activation	vas_med_l/activation	vas_int_l/activation	vas_lat_l/activation	med_gas_l/activation	lat_gas_l/activation	 soleus_l/activation	tib_post_l/activation	flex_dig_l/activation	flex_hal_l/activation	tib_ant_l/activation	per_brev_l/activation	per_long_l/activation	per_tert_l/activation	ext_dig_l/activation	ext_hal_l/activation	 ercspn_r/activation	 ercspn_l/activation	 intobl_r/activation	 intobl_l/activation	 extobl_r/activation	 extobl_l/activation	
          0.56217098	         -2.92679758	         -0.07259110	         -2.22602603	          0.57903611	          0.82259758	          0.00189838	        -16.04067515	          2.56641836	         10.49305135	         -4.04583623	          7.12144567	         10.66451403	         11.92708681	         29.31584042	          2.64583328	          5.08674469	        -13.56147623	          7.58052084	         -1.36530472	          0.23029979	         -5.53504499	          1.11529392	          1.20476997	         28.42520704	        -13.45327861	         18.86011829	         49.77283800	        -27.80885572	        -14.19463954	          5.89327666	         22.49816921	          0.23813739	          0.12502802	          0.06882354	          0.29729259	          0.26903984	          0.16710650	          0.01000289	          0.01000041	          0.01000040	          0.03649655	          0.10083627	          0.01000017	          0.01000022	          0.01000053	          0.01000191	          0.01000096	          0.37921624	          0.01000101	          0.01000126	          0.02260750	          0.01987618	          0.01000370	          0.22444506	          0.37601427	          0.01987764	          0.01987952	          0.06502597	          0.20767994	          0.01000083	          0.01000107	          0.01000088	          0.35330045	          0.38732636	          0.29327169	          0.24831691	          0.29734767	          0.36061215	          0.01573435	          0.01422974	          0.16227574	          0.01419321	          0.01451234	          0.01571933	          0.01939706	          0.01000370	          0.01000064	          0.01674069	          0.01566698	          0.01000190	          0.08954488	          0.01410067	          0.04787641	          0.01000040	          0.01883115	          0.11410592	          0.13726677	          0.13574554	          0.13102753	          0.09466884	          0.01000081	          0.02381674	          0.07038778	          0.01235425	          0.01409866	          0.05466348	          0.02346804	          0.02145692	          0.01779196	          0.01000185	          0.01000061	          0.01000040	          0.03986884	          0.04158140	          0.03383509	          0.01000021	          0.01000049	          0.01000013	          0.01013179	          0.01002392	          0.01001136	          0.24415335	          0.16540435	          0.11239466	          0.10337640	          0.27208905	          0.03335993	          0.01000001	          0.01616553	          0.01000004	          0.03327807	          0.01000005	          0.10601025	
          0.57341440	         -2.92018222	          0.12950814	         -2.38581758	          0.59289411	          0.82205883	          0.00165477	        -16.12966643	          2.35311743	         10.36030473	         -5.60364311	          6.56774697	         11.02677339	         12.89154456	         28.77554572	          3.05096903	          5.11987299	        -12.93037847	          7.06702865	         -1.52156443	          0.23519376	         -5.39866881	          0.68657010	          1.27649479	         28.67367587	        -13.45034128	         19.01381609	         51.17455680	        -29.25528436	        -14.17945632	          5.73952046	         22.94218311	          0.23639160	          0.10529651	          0.05796203	          0.27250435	          0.22658103	          0.14073432	          0.01187178	          0.01187202	          0.01187352	          0.03073681	          0.08492291	          0.01000013	          0.01000021	          0.01000056	          0.01000226	          0.01000179	          0.31936995	          0.01000065	          0.01000113	          0.01904015	          0.01674004	          0.01186527	          0.19384069	          0.33854145	          0.01674081	          0.01674250	          0.05476379	          0.19712289	          0.01000047	          0.01000059	          0.01000048	          0.31943878	          0.35527954	          0.27917557	          0.23973469	          0.29847249	          0.35547240	          0.01325121	          0.01208537	          0.16930619	          0.01195330	          0.01222205	          0.01323858	          0.01633595	          0.01187585	          0.01000069	          0.01409920	          0.01409722	          0.01000215	          0.07561051	          0.01187550	          0.04032079	          0.01000080	          0.01585935	          0.09610006	          0.16917313	          0.11700391	          0.14679262	          0.09668306	          0.01000042	          0.02006461	          0.05928033	          0.01187394	          0.01187406	          0.06053309	          0.01976442	          0.01807069	          0.01498417	          0.01000127	          0.01000040	          0.01000008	          0.07542631	          0.07741549	          0.06375051	          0.01000102	          0.01000075	          0.01187386	          0.01000022	          0.01000061	          0.01000121	          0.28339693	          0.19524361	          0.11872676	          0.09973142	          0.29305384	          0.02809531	          0.01000000	          0.01361437	          0.01000019	          0.02802624	          0.01000057	          0.08928005	
          0.58465782	         -2.90931583	          0.33267631	         -2.53444611	          0.60708580	          0.82156317	          0.00139702	        -16.12387500	          2.14869796	         10.22503879	         -7.34591017	          5.83688047	         11.38487974	         13.90745232	         28.16574438	          3.47192993	          5.17229979	        -12.74744090	          6.34390091	         -1.65923505	          0.23987638	         -5.24205420	          0.24950425	          1.34405839	         28.75113669	        -13.45026027	         19.06570662	         52.49000849	        -30.51461118	        -14.13845068	          5.70761539	         23.06565440	          0.27707191	          0.08867895	          0.04881465	          0.25521752	          0.19082280	          0.11852409	          0.01000097	          0.01000015	          0.01000012	          0.02588605	          0.07152082	          0.03349252	          0.01000047	          0.01000069	          0.01000161	          0.01000034	          0.26896809	          0.06525457	          0.01188008	          0.01603552	          0.01409842	          0.01000094	          0.16324978	          0.28511394	          0.01409891	          0.01410040	          0.04612115	          0.18506703	          0.01000022	          0.01000029	          0.01000024	          0.26902598	          0.30050790	          0.26143147	          0.23049382	          0.26867645	          0.33428426	          0.01115995	          0.01017845	          0.16925022	          0.01006690	          0.01029322	          0.01114936	          0.01375788	          0.01000227	          0.01000011	          0.01187428	          0.01187395	          0.01000190	          0.06367794	          0.01000139	          0.03395753	          0.01000010	          0.01335682	          0.08093620	          0.16550540	          0.16874320	          0.14264548	          0.08243836	          0.01000142	          0.02769777	          0.04992514	          0.01000028	          0.01000021	          0.05098017	          0.01674102	          0.01674055	          0.13395789	          0.01000063	          0.01000035	          0.01409954	          0.10408304	          0.09468639	          0.09308028	          0.01000000	          0.01000002	          0.01000000	          0.01000003	          0.01000027	          0.01000015	          0.28973284	          0.16766052	          0.10908634	          0.13905767	          0.31569517	          0.04287746	          0.01316539	          0.01146762	          0.03033512	          0.02360323	          0.01000007	          0.07519015	
          0.59590124	         -2.89414503	          0.54460393	         -2.67154614	          0.62155113	          0.82108837	          0.00114571	        -16.01796310	          1.94662618	         10.08726366	         -9.26913452	          4.91974044	         11.74018874	         14.94812480	         27.51509013	          3.87346477	          5.25723973	        -13.10341277	          5.38671935	         -1.77753740	          0.24170936	         -5.07068503	         -0.20100000	          1.40315383	         28.66901076	        -13.45321363	         19.04104026	         53.72317079	        -31.55763394	        -14.08127894	          5.86177092	         22.81338791	          0.23334542	          0.07468392	          0.04111087	          0.21494038	          0.16070779	          0.09981900	          0.01004228	          0.01000187	          0.01000166	          0.02180081	          0.06023370	          0.06364237	          0.01187347	          0.01003147	          0.01003347	          0.01186129	          0.22652045	          0.06069406	          0.01000623	          0.01350505	          0.01187376	          0.01000266	          0.13748625	          0.24011819	          0.01187391	          0.01187523	          0.03884246	          0.15965978	          0.01634288	          0.01185981	          0.01187386	          0.22656912	          0.25308269	          0.23230842	          0.20623938	          0.22627506	          0.28152891	          0.01000001	          0.01000101	          0.17769797	          0.01000008	          0.01000002	          0.01000011	          0.01158667	          0.01000007	          0.01168028	          0.01000037	          0.01000020	          0.01000016	          0.05362854	          0.06696416	          0.02859862	          0.01865947	          0.01409244	          0.06816324	          0.13938685	          0.14211352	          0.12013403	          0.06942828	          0.01000033	          0.02332764	          0.09512447	          0.01000217	          0.02092421	          0.04293485	          0.01409910	          0.01409900	          0.16950261	          0.02278517	          0.01003255	          0.01187442	          0.08765701	          0.07974331	          0.07839066	          0.01674103	          0.01674459	          0.01409920	          0.01375293	          0.01187522	          0.01584755	          0.24400811	          0.16199024	          0.11236061	          0.11711205	          0.32474157	          0.03611070	          0.02176258	          0.01000000	          0.03132960	          0.01987825	          0.01409926	          0.06332387	
